<?xml version="1.0" encoding="UTF-8" standalone="no" ?>
<!DOCTYPE svg PUBLIC "-//W3C//DTD SVG 1.1//EN" "http://www.w3.org/Graphics/SVG/1.1/DTD/svg11.dtd">
<svg xmlns="http://www.w3.org/2000/svg" xmlns:xlink="http://www.w3.org/1999/xlink" version="1.1" width="1080" height="1080" viewBox="0 0 1080 1080" xml:space="preserve">
<desc>Created with Fabric.js 5.2.4</desc>
<defs>
</defs>
<g transform="matrix(1 0 0 1 540 540)" id="33cc5747-cbb1-41a5-9ad8-02443843061b"  >
<rect style="stroke: none; stroke-width: 1; stroke-dasharray: none; stroke-linecap: butt; stroke-dashoffset: 0; stroke-linejoin: miter; stroke-miterlimit: 4; fill: rgb(255,255,255); fill-rule: nonzero; opacity: 1; visibility: hidden;" vector-effect="non-scaling-stroke"  x="-540" y="-540" rx="0" ry="0" width="1080" height="1080" />
</g>
<g transform="matrix(1 0 0 1 540 540)" id="1ce4b2fe-e7f6-4725-9c5f-30eef2edff92"  >
</g>
<g transform="matrix(20.47 0 0 20.47 520.07 540)" id="2b7221ad-3911-40ec-82de-ed93dc8833b5"  >
<path style="stroke: rgb(0,0,0); stroke-width: 0; stroke-dasharray: none; stroke-linecap: butt; stroke-dashoffset: 0; stroke-linejoin: miter; stroke-miterlimit: 4; fill: rgb(0,0,0); fill-rule: nonzero; opacity: 1;" vector-effect="non-scaling-stroke"  transform=" translate(-16, -16)" d="M 16 0 C 7.1694 0 0 7.1694 0 16 C 0 24.8306 7.1694 32 16 32 C 24.8306 32 32 24.8306 32 16 C 32 7.1694 24.8306 0 16 0 z M 16 1 C 24.2902 1 31 7.7098 31 16 C 31 24.2902 24.2902 31 16 31 C 7.7098 31 1 24.2902 1 16 C 1 7.7098 7.7098 1 16 1 z M 19.498 8.0078 C 19.2791 8.0101 19.062 8.0284 18.8457 8.0625 C 18.8119 8.0675 18.7777 8.0704 18.7441 8.0762 C 18.5286 8.1127 18.3154 8.165 18.1074 8.2324 C 16.7816 8.6658 15.7312 9.6909 15.2656 11.0059 L 9.1602 11.0059 C 8.5208 11.0059 8 11.5247 8 12.1641 L 8 14.8418 C 8 15.0926 8.0985 15.3102 8.2344 15.5 C 8.0985 15.6898 8 15.9094 8 16.1602 L 8 18.8379 C 8 19.0886 8.0985 19.3063 8.2344 19.4961 C 8.0985 19.6859 8 19.9055 8 20.1563 L 8 22.834 C 8 23.4744 8.5208 23.9922 9.1602 23.9922 L 19.8281 23.9922 C 20.4675 23.9922 20.9863 23.4734 20.9863 22.834 L 20.9863 20.1563 C 20.9863 19.9055 20.8917 19.6859 20.7559 19.4961 C 20.8917 19.3063 20.9863 19.0886 20.9863 18.8379 L 20.9863 16.7402 C 21.856 16.4348 22.6108 15.8678 23.1484 15.1191 L 23.1484 15.1172 L 23.1484 15.1152 C 23.281 14.9332 23.4001 14.7428 23.5039 14.543 L 23.5059 14.5391 L 23.5098 14.5313 C 23.5935 14.3617 23.6667 14.1865 23.7285 14.0078 C 23.7536 13.9382 23.7771 13.8681 23.7988 13.7969 C 23.8425 13.6531 23.8791 13.5068 23.9082 13.3594 C 23.9298 13.2495 23.9438 13.138 23.957 13.0254 C 23.973 12.8965 23.9835 12.7685 23.9883 12.6387 C 23.9895 12.5938 24 12.5512 24 12.5059 C 24 12.4658 23.9893 12.4285 23.9883 12.3887 C 23.9827 12.1616 23.9598 11.9346 23.9199 11.7109 C 23.9063 11.6351 23.8904 11.5608 23.873 11.4863 C 23.8217 11.2662 23.7537 11.0517 23.6699 10.8418 C 23.6499 10.792 23.6311 10.7423 23.6094 10.6934 C 23.5083 10.4639 23.3879 10.2426 23.25 10.0332 C 23.2382 10.0154 23.2288 9.9962 23.2168 9.9785 C 23.0699 9.7643 22.9062 9.5626 22.7246 9.377 C 22.7021 9.3537 22.6812 9.3294 22.6582 9.3066 C 22.4726 9.1244 22.2709 8.96 22.0566 8.8125 C 22.0343 8.797 22.0129 8.7807 21.9902 8.7656 C 21.776 8.6243 21.5495 8.5012 21.3145 8.3984 C 21.2773 8.382 21.2408 8.3651 21.2031 8.3496 C 20.9699 8.2541 20.7303 8.1782 20.4844 8.123 C 20.4406 8.1132 20.3977 8.1023 20.3535 8.0938 C 20.072 8.0379 19.785 8.0091 19.498 8.0078 z M 19.502 9.0098 C 19.7383 9.0098 19.9701 9.0313 20.1934 9.0762 C 20.1947 9.0764 20.1961 9.0759 20.1973 9.0762 C 20.209 9.0794 20.2207 9.0825 20.2324 9.0859 C 20.4505 9.1324 20.6623 9.198 20.8633 9.2832 C 21.0675 9.3697 21.2591 9.4756 21.4414 9.5977 L 21.459 9.6094 C 21.5433 9.6666 21.6168 9.7378 21.6953 9.8027 L 16.8008 14.6973 C 16.7369 14.6184 16.6646 14.5471 16.6074 14.4629 C 16.6059 14.4606 16.6032 14.4593 16.6016 14.457 C 16.478 14.274 16.3728 14.0764 16.2852 13.8711 C 16.2832 13.8665 16.2813 13.862 16.2793 13.8574 C 16.1919 13.65 16.1244 13.4324 16.0781 13.207 C 16.0315 12.9796 16.0059 12.7469 16.0059 12.5059 C 16.0059 11.0638 16.8839 9.8231 18.1328 9.2891 C 18.1388 9.2866 18.1444 9.2837 18.1504 9.2813 C 18.3498 9.1973 18.5594 9.1319 18.7754 9.0859 C 18.789 9.0826 18.8027 9.0794 18.8164 9.0762 C 19.0385 9.0318 19.267 9.0098 19.502 9.0098 z M 22.3809 10.5313 C 22.3949 10.551 22.4102 10.5698 22.4238 10.5898 C 22.5226 10.74 22.6066 10.8994 22.6816 11.0645 C 22.7028 11.1102 22.723 11.1565 22.7422 11.2031 C 22.8073 11.3646 22.8598 11.5328 22.9004 11.7051 C 22.9134 11.7594 22.9251 11.8142 22.9355 11.8691 C 22.9704 12.0575 22.989 12.2517 22.9922 12.4492 C 22.993 12.4674 22.9955 12.4857 22.9961 12.5039 C 22.9951 12.5312 22.9938 12.5586 22.9922 12.5859 C 22.9881 12.7631 22.9691 12.9338 22.9395 13.1035 C 22.9273 13.1742 22.913 13.2447 22.8965 13.3145 C 22.8566 13.481 22.807 13.6444 22.7441 13.8008 C 22.7286 13.8394 22.7123 13.8779 22.6953 13.916 C 22.6232 14.0783 22.5384 14.2346 22.4434 14.3828 C 22.4244 14.415 22.4048 14.447 22.3848 14.4785 L 22.3691 14.5 C 22.2658 14.6479 22.1497 14.786 22.0254 14.916 C 21.9998 14.9444 21.9737 14.9725 21.9473 15 C 21.8117 15.1328 21.6614 15.2498 21.5059 15.3594 C 21.4782 15.3799 21.4501 15.4002 21.4219 15.4199 C 21.2652 15.5234 21.1006 15.6119 20.9277 15.6895 C 20.8903 15.707 20.8525 15.724 20.8145 15.7402 C 20.6409 15.8108 20.4595 15.8661 20.2734 15.9082 C 20.2352 15.9179 20.1967 15.9271 20.1582 15.9355 C 19.9551 15.9743 19.7451 15.9962 19.5313 15.998 C 19.5201 15.9987 19.5091 15.9994 19.498 16 L 19.4688 15.998 C 19.2456 15.9959 19.0278 15.9739 18.8164 15.9316 C 18.8126 15.9309 18.8085 15.9305 18.8047 15.9297 L 18.7734 15.9219 C 18.3197 15.8252 17.9018 15.6346 17.5313 15.3809 L 22.3809 10.5313 z M 9.1602 12.0039 L 15.0352 12.0039 C 15.0148 12.1697 15.0037 12.3369 15.002 12.5039 C 15.0038 12.7169 15.0208 12.9281 15.0527 13.1387 C 15.0568 13.1675 15.0617 13.196 15.0664 13.2246 C 15.134 13.6394 15.2598 14.0439 15.4395 14.4238 C 15.4441 14.4335 15.4485 14.4434 15.4531 14.4531 C 15.543 14.6429 15.6463 14.8266 15.7617 15.002 L 9.1602 15.002 C 9.0713 15.0019 9 14.9307 9 14.8418 L 9 12.1641 C 9 12.0752 9.0712 12.0039 9.1602 12.0039 z M 10.002 12.9922 L 10.002 13.9922 L 12.998 13.9922 L 12.998 12.9922 L 10.002 12.9922 z M 9.1602 16 L 16.6758 16 C 17.4751 16.6459 18.4704 16.9975 19.498 16.998 L 19.5 16.998 L 19.502 17 C 19.516 17 19.529 16.9965 19.543 16.9961 C 19.6916 16.9943 19.8405 16.9872 19.9883 16.9707 L 19.9883 18.8379 C 19.9883 18.9268 19.917 18.9961 19.8281 18.9961 L 9.1602 18.998 C 9.0711 18.9979 9 18.9268 9 18.8379 L 9 16.1602 C 9 16.0712 9.0712 16 9.1602 16 z M 10.002 16.9922 L 10.002 17.9922 L 12.998 17.9922 L 12.998 16.9922 L 10.002 16.9922 z M 18 16.9922 L 18 17.9922 L 19 17.9922 L 19 16.9922 L 18 16.9922 z M 9.1602 19.9961 L 19.8281 19.9961 C 19.917 19.9961 19.9883 20.0673 19.9883 20.1563 L 19.9883 22.834 C 19.9883 22.9229 19.917 22.9941 19.8281 22.9941 L 9.1602 22.9941 C 9.0712 22.9941 9 22.9229 9 22.834 L 9 20.1563 C 9 20.0673 9.0712 19.9961 9.1602 19.9961 z M 10.002 20.9922 L 10.002 21.9922 L 12.998 21.9922 L 12.998 20.9922 L 10.002 20.9922 z M 18 20.9941 L 18 21.9941 L 18.998 21.9941 L 18.998 20.9941 L 18 20.9941 z" stroke-linecap="round" />
</g>
</svg>