<?xml version="1.0" encoding="UTF-8"?><!-- Generator: Adobe Illustrator 25.3.1, SVG Export Plug-In . SVG Version: 6.00 Build 0) -->
<svg xmlns="http://www.w3.org/2000/svg" xmlns:xlink="http://www.w3.org/1999/xlink" version="1.1"
    id="Layer_1" x="0px" y="0px" viewBox="0 0 70 70" xml:space="preserve"> <style type="text/css"> .st0{fill:#1B54F8;} </style>
    <g>     <path
        d="M16,0C7.1694,0 0,7.1694 0,16C0,24.8306 7.1694,32 16,32C24.8306,32 32,24.8306 32,16C32,7.1694 24.8306,0 16,0zM16,1C24.2902,1 31,7.7098 31,16C31,24.2902 24.2902,31 16,31C7.7098,31 1,24.2902 1,16C1,7.7098 7.7098,1 16,1zM19.498,8.0078C19.2791,8.0101 19.062,8.0284 18.8457,8.0625C18.8119,8.0675 18.7777,8.0704 18.7441,8.0762C18.5286,8.1127 18.3154,8.165 18.1074,8.2324C16.7816,8.6658 15.7312,9.6909 15.2656,11.0059L9.1602,11.0059C8.5208,11.0059 8,11.5247 8,12.1641L8,14.8418C8,15.0926 8.0985,15.3102 8.2344,15.5C8.0985,15.6898 8,15.9094 8,16.1602L8,18.8379C8,19.0886 8.0985,19.3063 8.2344,19.4961C8.0985,19.6859 8,19.9055 8,20.1563L8,22.834C8,23.4744 8.5208,23.9922 9.1602,23.9922L19.8281,23.9922C20.4675,23.9922 20.9863,23.4734 20.9863,22.834L20.9863,20.1563C20.9863,19.9055 20.8917,19.6859 20.7559,19.4961C20.8917,19.3063 20.9863,19.0886 20.9863,18.8379L20.9863,16.7402C21.856,16.4348 22.6108,15.8678 23.1484,15.1191L23.1484,15.1172L23.1484,15.1152C23.281,14.9332 23.4001,14.7428 23.5039,14.543L23.5059,14.5391L23.5098,14.5313C23.5935,14.3617 23.6667,14.1865 23.7285,14.0078C23.7536,13.9382 23.7771,13.8681 23.7988,13.7969C23.8425,13.6531 23.8791,13.5068 23.9082,13.3594C23.9298,13.2495 23.9438,13.138 23.957,13.0254C23.973,12.8965 23.9835,12.7685 23.9883,12.6387C23.9895,12.5938 24,12.5512 24,12.5059C24,12.4658 23.9893,12.4285 23.9883,12.3887C23.9827,12.1616 23.9598,11.9346 23.9199,11.7109C23.9063,11.6351 23.8904,11.5608 23.873,11.4863C23.8217,11.2662 23.7537,11.0517 23.6699,10.8418C23.6499,10.792 23.6311,10.7423 23.6094,10.6934C23.5083,10.4639 23.3879,10.2426 23.25,10.0332C23.2382,10.0154 23.2288,9.9962 23.2168,9.9785C23.0699,9.7643 22.9062,9.5626 22.7246,9.377C22.7021,9.3537 22.6812,9.3294 22.6582,9.3066C22.4726,9.1244 22.2709,8.96 22.0566,8.8125C22.0343,8.797 22.0129,8.7807 21.9902,8.7656C21.776,8.6243 21.5495,8.5012 21.3145,8.3984C21.2773,8.382 21.2408,8.3651 21.2031,8.3496C20.9699,8.2541 20.7303,8.1782 20.4844,8.123C20.4406,8.1132 20.3977,8.1023 20.3535,8.0938C20.072,8.0379 19.785,8.0091 19.498,8.0078zM19.502,9.0098C19.7383,9.0098 19.9701,9.0313 20.1934,9.0762C20.1947,9.0764 20.1961,9.0759 20.1973,9.0762C20.209,9.0794 20.2207,9.0825 20.2324,9.0859C20.4505,9.1324 20.6623,9.198 20.8633,9.2832C21.0675,9.3697 21.2591,9.4756 21.4414,9.5977L21.459,9.6094C21.5433,9.6666 21.6168,9.7378 21.6953,9.8027L16.8008,14.6973C16.7369,14.6184 16.6646,14.5471 16.6074,14.4629C16.6059,14.4606 16.6032,14.4593 16.6016,14.457C16.478,14.274 16.3728,14.0764 16.2852,13.8711C16.2832,13.8665 16.2813,13.862 16.2793,13.8574C16.1919,13.65 16.1244,13.4324 16.0781,13.207C16.0315,12.9796 16.0059,12.7469 16.0059,12.5059C16.0059,11.0638 16.8839,9.8231 18.1328,9.2891C18.1388,9.2866 18.1444,9.2837 18.1504,9.2813C18.3498,9.1973 18.5594,9.1319 18.7754,9.0859C18.789,9.0826 18.8027,9.0794 18.8164,9.0762C19.0385,9.0318 19.267,9.0098 19.502,9.0098zM22.3809,10.5313C22.3949,10.551 22.4102,10.5698 22.4238,10.5898C22.5226,10.74 22.6066,10.8994 22.6816,11.0645C22.7028,11.1102 22.723,11.1565 22.7422,11.2031C22.8073,11.3646 22.8598,11.5328 22.9004,11.7051C22.9134,11.7594 22.9251,11.8142 22.9355,11.8691C22.9704,12.0575 22.989,12.2517 22.9922,12.4492C22.993,12.4674 22.9955,12.4857 22.9961,12.5039C22.9951,12.5312 22.9938,12.5586 22.9922,12.5859C22.9881,12.7631 22.9691,12.9338 22.9395,13.1035C22.9273,13.1742 22.913,13.2447 22.8965,13.3145C22.8566,13.481 22.807,13.6444 22.7441,13.8008C22.7286,13.8394 22.7123,13.8779 22.6953,13.916C22.6232,14.0783 22.5384,14.2346 22.4434,14.3828C22.4244,14.415 22.4048,14.447 22.3848,14.4785L22.3691,14.5C22.2658,14.6479 22.1497,14.786 22.0254,14.916C21.9998,14.9444 21.9737,14.9725 21.9473,15C21.8117,15.1328 21.6614,15.2498 21.5059,15.3594C21.4782,15.3799 21.4501,15.4002 21.4219,15.4199C21.2652,15.5234 21.1006,15.6119 20.9277,15.6895C20.8903,15.707 20.8525,15.724 20.8145,15.7402C20.6409,15.8108 20.4595,15.8661 20.2734,15.9082C20.2352,15.9179 20.1967,15.9271 20.1582,15.9355C19.9551,15.9743 19.7451,15.9962 19.5313,15.998C19.5201,15.9987 19.5091,15.9994 19.498,16L19.4688,15.998C19.2456,15.9959 19.0278,15.9739 18.8164,15.9316C18.8126,15.9309 18.8085,15.9305 18.8047,15.9297L18.7734,15.9219C18.3197,15.8252 17.9018,15.6346 17.5313,15.3809L22.3809,10.5313zM9.1602,12.0039L15.0352,12.0039C15.0148,12.1697 15.0037,12.3369 15.002,12.5039C15.0038,12.7169 15.0208,12.9281 15.0527,13.1387C15.0568,13.1675 15.0617,13.196 15.0664,13.2246C15.134,13.6394 15.2598,14.0439 15.4395,14.4238C15.4441,14.4335 15.4485,14.4434 15.4531,14.4531C15.543,14.6429 15.6463,14.8266 15.7617,15.002L9.1602,15.002C9.0713,15.0019 9,14.9307 9,14.8418L9,12.1641C9,12.0752 9.0712,12.0039 9.1602,12.0039zM10.002,12.9922L10.002,13.9922L12.998,13.9922L12.998,12.9922L10.002,12.9922zM9.1602,16L16.6758,16C17.4751,16.6459 18.4704,16.9975 19.498,16.998L19.5,16.998L19.502,17C19.516,17 19.529,16.9965 19.543,16.9961C19.6916,16.9943 19.8405,16.9872 19.9883,16.9707L19.9883,18.8379C19.9883,18.9268 19.917,18.9961 19.8281,18.9961L9.1602,18.998C9.0711,18.9979 9,18.9268 9,18.8379L9,16.1602C9,16.0712 9.0712,16 9.1602,16zM10.002,16.9922L10.002,17.9922L12.998,17.9922L12.998,16.9922L10.002,16.9922zM18,16.9922L18,17.9922L19,17.9922L19,16.9922L18,16.9922zM9.1602,19.9961L19.8281,19.9961C19.917,19.9961 19.9883,20.0673 19.9883,20.1563L19.9883,22.834C19.9883,22.9229 19.917,22.9941 19.8281,22.9941L9.1602,22.9941C9.0712,22.9941 9,22.9229 9,22.834L9,20.1563C9,20.0673 9.0712,19.9961 9.1602,19.9961zM10.002,20.9922L10.002,21.9922L12.998,21.9922L12.998,20.9922L10.002,20.9922zM18,20.9941L18,21.9941L18.998,21.9941L18.998,20.9941L18,20.9941z" />
      </g> </svg>